<svg width="34" height="39" viewBox="0 0 34 39" fill="none" xmlns="http://www.w3.org/2000/svg">
<path d="M4.27206 21.2426C1.92891 18.8995 1.92891 15.1005 4.27206 12.7574L12.7573 4.27208C15.1005 1.92893 18.8995 1.92893 21.2426 4.27208L29.7279 12.7574C32.071 15.1005 32.071 18.8995 29.7279 21.2426L17.7071 33.2635C17.3166 33.654 16.6834 33.654 16.2929 33.2635L4.27206 21.2426Z" fill="black"/>
<path fill-rule="evenodd" clip-rule="evenodd" d="M17 24C17.5523 24 18 24.4477 18 25V37.9775C18 38.5298 17.5523 38.9775 17 38.9775C16.4477 38.9775 16 38.5298 16 37.9775V25C16 24.4477 16.4477 24 17 24Z" fill="black"/>
<path d="M13.0124 22H15.1604C15.4604 22 15.6284 21.856 15.6524 21.544L15.8204 19.648H19.0964C21.3884 19.648 22.8044 18.364 22.8044 16.276C22.8044 14.656 21.7364 13.6 19.6244 13.6H13.6964C13.3964 13.6 13.2284 13.744 13.2044 14.056L12.5564 21.496C12.5324 21.808 12.7004 22 13.0124 22ZM16.0004 17.644L16.1564 15.844H18.6764C19.2164 15.844 19.5884 16.096 19.5884 16.636C19.5884 17.26 19.1924 17.644 18.5204 17.644H16.0004Z" fill="#F6C62D"/>
</svg>
